<svg width="24" height="24" viewBox="0 0 24 24" fill="none" xmlns="http://www.w3.org/2000/svg">
<path d="M21 3V2H22V3H21ZM11.7071 13.7071C11.3166 14.0976 10.6834 14.0976 10.2929 13.7071C9.90237 13.3166 9.90237 12.6834 10.2929 12.2929L11.7071 13.7071ZM20 11V3H22V11H20ZM21 4H13V2H21V4ZM21.7071 3.70711L11.7071 13.7071L10.2929 12.2929L20.2929 2.29289L21.7071 3.70711Z" fill="#CCD2E3"/>
<path d="M20 15V15C20 16.8692 20 17.8038 19.5981 18.5C19.3348 18.9561 18.9561 19.3348 18.5 19.5981C17.8038 20 16.8692 20 15 20H10C7.17157 20 5.75736 20 4.87868 19.1213C4 18.2426 4 16.8284 4 14V9C4 7.13077 4 6.19615 4.40192 5.5C4.66523 5.04394 5.04394 4.66523 5.5 4.40192C6.19615 4 7.13077 4 9 4V4" stroke="#CCD2E3" stroke-width="2" stroke-linecap="round"/>
</svg>
