<svg width="20" height="20" viewBox="0 0 20 20" fill="none" xmlns="http://www.w3.org/2000/svg">
<path fill-rule="evenodd" clip-rule="evenodd" d="M10.0001 3C10.5524 3 11.0001 3.44772 11.0001 4V9H16.0001C16.5524 9 17.0001 9.44772 17.0001 10C17.0001 10.5523 16.5524 11 16.0001 11H11.0001V16C11.0001 16.5523 10.5524 17 10.0001 17C9.44784 17 9.00012 16.5523 9.00012 16V11H4.00012C3.44784 11 3.00012 10.5523 3.00012 10C3.00012 9.44771 3.44784 9 4.00012 9L9.00012 9V4C9.00012 3.44772 9.44784 3 10.0001 3Z" fill="#111827"/>
</svg>
